<svg xmlns="http://www.w3.org/2000/svg" width="256" height="256" viewBox="0 0 100 100">
  <title>Crisp Facets - black knight</title>
  <g fill="#0F1920" stroke="#0F1920" stroke-width="5" stroke-linejoin="miter" stroke-miterlimit="4"><polygon points="30,73 31,57 42,50 24,58 15,53 17,43 32,29 35,13 46,24 60,26 73,44 72,73"/><polygon points="20,84 80,84 74,73 26,73"/></g><g fill="#3B4E58"><polygon points="30,73 31,57 42,50 24,58 15,53 17,43 32,29 35,13 46,24 60,26 73,44 72,73"/><polygon points="20,84 80,84 74,73 26,73"/></g><g fill="none" stroke="#E8EEF1" stroke-width="3" stroke-linecap="round" stroke-linejoin="round"><path d="M50 29L64 46"/></g><g fill="#E8EEF1"><polygon points="36,33 41,36 36,40 32,36"/></g>
</svg>
