<svg xmlns="http://www.w3.org/2000/svg" width="256" height="256" viewBox="0 0 100 100">
  <title>Soft Geometry - white rook</title>
  <g fill="#2F3E46" stroke="#2F3E46" stroke-width="5" stroke-linejoin="round" stroke-miterlimit="4"><rect x="23" y="19" width="12" height="22" rx="2.5"/><rect x="44" y="19" width="12" height="22" rx="2.5"/><rect x="65" y="19" width="12" height="22" rx="2.5"/><rect x="23" y="36" width="54" height="9" rx="3"/><rect x="29" y="44" width="42" height="31" rx="2"/><rect x="20" y="73" width="60" height="11" rx="5.5"/></g><g fill="#F7F8F6"><rect x="23" y="19" width="12" height="22" rx="2.5"/><rect x="44" y="19" width="12" height="22" rx="2.5"/><rect x="65" y="19" width="12" height="22" rx="2.5"/><rect x="23" y="36" width="54" height="9" rx="3"/><rect x="29" y="44" width="42" height="31" rx="2"/><rect x="20" y="73" width="60" height="11" rx="5.5"/></g><g fill="none" stroke="#2F3E46" stroke-width="3" stroke-linecap="round" stroke-linejoin="round"><path d="M31 45H69"/></g>
</svg>
